<svg xmlns="http://www.w3.org/2000/svg" width="58.965" height="54.081" viewBox="0 0 58.965 54.081">
  <g id="elearning" transform="translate(0 -21.204)">
    <g id="Group_2983" data-name="Group 2983" transform="translate(0 21.204)">
      <path id="Path_3865" data-name="Path 3865" d="M309.15,64.278a28.336,28.336,0,0,0-6.133-.9.864.864,0,0,0-.082,1.726,29.531,29.531,0,0,1,5.986.869.864.864,0,0,0,.229-1.7Z" transform="translate(-267.318 -58.521)" fill="#ff0089"/>
      <path id="Path_3866" data-name="Path 3866" d="M309.149,100.291a28.335,28.335,0,0,0-6.133-.9.864.864,0,0,0-.082,1.726,29.534,29.534,0,0,1,5.986.869.864.864,0,0,0,.229-1.7Z" transform="translate(-267.318 -90.387)" fill="#ff0089"/>
      <path id="Path_3867" data-name="Path 3867" d="M309.149,139.975a28.334,28.334,0,0,0-6.133-.9.864.864,0,0,0-.082,1.726,29.533,29.533,0,0,1,5.986.869.864.864,0,0,0,.229-1.7Z" transform="translate(-267.318 -125.501)" fill="#ff0089"/>
      <path id="Path_3868" data-name="Path 3868" d="M422.259,63.38a28.34,28.34,0,0,0-6.133.9.864.864,0,0,0,.229,1.7,29.93,29.93,0,0,1,5.986-.869.864.864,0,1,0-.082-1.726Z" transform="translate(-367.641 -58.522)" fill="#ff0089"/>
      <path id="Path_3869" data-name="Path 3869" d="M422.259,99.394a28.336,28.336,0,0,0-6.133.9.864.864,0,0,0,.229,1.7,29.939,29.939,0,0,1,5.986-.869.864.864,0,1,0-.082-1.726Z" transform="translate(-367.641 -90.388)" fill="#ff0089"/>
      <path id="Path_3870" data-name="Path 3870" d="M419.209,141.429a24.06,24.06,0,0,0-3.083.621.864.864,0,0,0,.229,1.7c.342,0,.894-.3,3.091-.607a.864.864,0,1,0-.237-1.711Z" transform="translate(-367.641 -127.576)" fill="#ff0089"/>
      <path id="Path_3871" data-name="Path 3871" d="M54.7,54.6a.864.864,0,0,0-.864.864V67.125H30.368V64.072a10.744,10.744,0,0,0-8.7-10.536l-.092-.018a2.7,2.7,0,0,0-.441-.619,6.318,6.318,0,0,0-2.192-1.468,7.774,7.774,0,0,0,.891-.676A6.4,6.4,0,0,0,21.916,46.8a1.949,1.949,0,0,0,1.535-1.913l0-2.314a1.952,1.952,0,0,0-.082-.55,1.924,1.924,0,0,0,.088-.572V37.944a2.666,2.666,0,0,0-.349-1.318h5.181a.864.864,0,0,0,0-1.727h-7.4a2.69,2.69,0,0,0-2.616-2.082h-5.8A5.532,5.532,0,0,0,8.134,34.9H4.378A4.383,4.383,0,0,0,0,39.276V70.758a4.383,4.383,0,0,0,4.378,4.378h17.74l-.435,3.337H20.432a4.609,4.609,0,0,0-4.6,4.6,2.487,2.487,0,0,0,2.484,2.484H36.246a2.487,2.487,0,0,0,2.484-2.484,4.609,4.609,0,0,0-4.6-4.6H32.874l-.435-3.337H51.187a4.383,4.383,0,0,0,4.378-4.378V55.465A.864.864,0,0,0,54.7,54.6Zm-35.463.134a2.14,2.14,0,0,0,.384-.893c.088.077.176.161.261.25a.992.992,0,0,1,.257.856L19.5,58.511a.453.453,0,0,1-.559.359l-2.307-.594Zm-6.725-1.023a.409.409,0,0,1-.052-.392l.335-.864a.86.86,0,0,0,.057-.314,6.739,6.739,0,0,0,4.654.007.859.859,0,0,0,.057.307l.335.864a.409.409,0,0,1-.052.392l-2.667,3.629Zm1.21,4.564-2.307.594a.453.453,0,0,1-.559-.359l-.637-3.564a.991.991,0,0,1,.257-.856c.085-.089.173-.173.261-.25a2.137,2.137,0,0,0,.384.893Zm7.793-13.163-.406,0a.864.864,0,0,0-.86.849,4.744,4.744,0,0,1-1.558,3.495,5.156,5.156,0,0,1-6.973.03,4.744,4.744,0,0,1-1.587-3.481.863.863,0,0,0-.867-.842l-.406,0h0a.2.2,0,0,1-.143-.061.225.225,0,0,1-.065-.158l0-1.525.719.25a1.483,1.483,0,0,0,1.97-1.4l0-2.182a1.046,1.046,0,0,1,1.029-1.06h.022a2.148,2.148,0,0,1,.672.1,7.209,7.209,0,0,0,4.256,0,2.153,2.153,0,0,1,.672-.1h.023a1.046,1.046,0,0,1,1.028,1.063l0,2.18A1.483,1.483,0,0,0,21,43.673l.717-.25,0,1.466a.216.216,0,0,1-.208.223ZM8.644,38.358a3.818,3.818,0,0,1,3.814-3.813h5.8a.961.961,0,0,1,.96.96,1.481,1.481,0,0,0,1.48,1.48h.061a.961.961,0,0,1,.96.96v3.5a.2.2,0,0,1-.136.192l-.826.288,0-1.833A2.775,2.775,0,0,0,18.015,37.3h-.04a3.893,3.893,0,0,0-1.192.187,5.518,5.518,0,0,1-3.2,0,3.873,3.873,0,0,0-1.209-.187h-.022a2.774,2.774,0,0,0-2.748,2.792l0,1.835-.827-.288a.2.2,0,0,1-.136-.192Zm-6.917.918a2.653,2.653,0,0,1,2.65-2.65H7.2a5.516,5.516,0,0,0-.279,1.732v3.091a1.925,1.925,0,0,0,.093.591,1.952,1.952,0,0,0-.093.6l0,2.314a1.944,1.944,0,0,0,.569,1.372,1.918,1.918,0,0,0,.982.53A6.4,6.4,0,0,0,10.589,50.8a7.81,7.81,0,0,0,.84.632,6.322,6.322,0,0,0-2.2,1.472,2.694,2.694,0,0,0-.442.62,10.735,10.735,0,0,0-7.056,4.724Zm0,24.8a9.015,9.015,0,0,1,6.808-8.729l.621,3.472a2.182,2.182,0,0,0,2.69,1.728l3.334-.858,3.334.858a2.182,2.182,0,0,0,2.69-1.728l.621-3.474a9.015,9.015,0,0,1,6.816,8.731v3.053H25.054V63.363a.864.864,0,1,0-1.727,0v3.763H7.041V63.363a.864.864,0,1,0-1.728,0v3.763H1.728ZM34.126,80.2A2.879,2.879,0,0,1,37,83.077a.758.758,0,0,1-.757.757H18.312a.758.758,0,0,1-.757-.757A2.879,2.879,0,0,1,20.432,80.2Zm-10.7-1.728.435-3.337H30.7l.435,3.337Zm30.412-7.715a2.653,2.653,0,0,1-2.65,2.65H4.378a2.653,2.653,0,0,1-2.65-2.65V68.853h52.11Z" transform="translate(0 -31.48)" fill="#ff0089"/>
      <path id="Path_3872" data-name="Path 3872" d="M298.2,21.208c-2.294-.034-8.03.113-11.737,2.228a.236.236,0,0,1-.233,0c-3.707-2.116-9.444-2.264-11.74-2.23a1.972,1.972,0,0,0-1.933,1.964V39.9a1.964,1.964,0,0,0,1.994,1.964c1.985-.027,6.962.086,10.319,1.736a3.333,3.333,0,0,0,2.959,0c3.388-1.662,8.406-1.764,10.407-1.73a1.866,1.866,0,0,0,1.9-1.868V23.172A1.972,1.972,0,0,0,298.2,21.208ZM285.483,41.982c-3.15-1.5-7.482-1.89-10.955-1.842a.237.237,0,0,1-.242-.237V23.172a.237.237,0,0,1,.232-.237c2.154-.032,7.521.1,10.857,2,.035.02.071.039.108.057ZM298.407,40a.14.14,0,0,1-.142.141c-6.154-.1-9.7,1.2-11.055,1.839V24.995q.056-.027.11-.058c3.337-1.9,8.7-2.033,10.855-2a.237.237,0,0,1,.232.237V40Z" transform="translate(-241.169 -21.204)" fill="#ff0089"/>
    </g>
  </g>
</svg>
